<svg width="10" height="10" viewBox="0 0 10 10" fill="none" xmlns="http://www.w3.org/2000/svg">
<path d="M7.92191 1.18499C8.16856 0.938338 8.56836 0.938338 8.81501 1.18499C9.06166 1.43164 9.06166 1.83144 8.81501 2.07809L5.8931 5L8.81501 7.92191C9.06166 8.16856 9.06166 8.56836 8.81501 8.81501C8.56836 9.06166 8.16856 9.06166 7.92191 8.81501L5 5.8931L2.07809 8.81501C1.83144 9.06166 1.43164 9.06166 1.18499 8.81501C0.938338 8.56836 0.938338 8.16856 1.18499 7.92191L4.1069 5L1.18499 2.07809C0.938338 1.83144 0.938338 1.43164 1.18499 1.18499C1.43164 0.938338 1.83144 0.938338 2.07809 1.18499L5 4.1069L7.92191 1.18499Z" fill="#DD5A5A"/>
</svg>
