<svg width="298" height="29" viewBox="0 0 298 29" fill="none" xmlns="http://www.w3.org/2000/svg">
<g clip-path="url(#clip0_172_1002)">
<mask id="mask0_172_1002" style="mask-type:luminance" maskUnits="userSpaceOnUse" x="35" y="-12" width="311" height="50">
<path d="M345.325 -12H35.0896V38H345.325V-12Z" fill="white"/>
</mask>
<g mask="url(#mask0_172_1002)">
<path d="M41.8288 23.2713H38.3695V4.27905H41.8288V12.2558H44.7346L50.9614 4.27905H55.1679L47.7788 13.3139L56.3579 23.2713H51.93L44.9007 15.0504H41.8288V23.2713ZM64.1759 23.5698C63.0872 23.5698 62.1093 23.4251 61.2424 23.1356C60.3751 22.8282 59.6279 22.376 59.0008 21.7791C58.3732 21.1822 57.8938 20.4406 57.5617 19.5542C57.2296 18.668 57.0636 17.6279 57.0636 16.4341C57.0636 15.2584 57.2386 14.2364 57.5894 13.3682C57.9398 12.4819 58.4286 11.7494 59.0561 11.1705C59.6833 10.5736 60.4399 10.1305 61.3254 9.84107C62.211 9.55168 63.1979 9.40696 64.2866 9.40696C65.3565 9.40696 66.3251 9.56074 67.1924 9.8682C68.078 10.1757 68.8252 10.6279 69.4341 11.2248C70.0612 11.8217 70.541 12.5633 70.8731 13.4496C71.2052 14.3359 71.3713 15.3669 71.3713 16.5426C71.3713 17.7183 71.1959 18.7494 70.8455 19.6356C70.4946 20.5039 70.0059 21.2274 69.3787 21.8062C68.7511 22.385 67.995 22.8282 67.1094 23.1356C66.2238 23.4251 65.2458 23.5698 64.1759 23.5698ZM60.3568 16.5155C60.3568 18.0168 60.6979 19.1111 61.3808 19.7984C62.0633 20.4677 63.0136 20.8023 64.2313 20.8023C65.4672 20.8023 66.4175 20.4587 67.0817 19.7713C67.7459 19.0659 68.078 17.9897 68.078 16.5426V16.4612C68.078 14.96 67.7272 13.8747 67.0264 13.2054C66.3435 12.5181 65.3936 12.1744 64.1759 12.1744C62.9395 12.1925 61.9896 12.5542 61.3254 13.2597C60.6796 13.947 60.3568 15.0052 60.3568 16.4341V16.5155ZM83.8471 17.7907H77.5927V23.2713H74.3548V9.70541H77.5927V14.9961H83.8471V9.70541H87.085V23.2713H83.8471V17.7907ZM102.017 21.9147C101.704 22.2946 101.141 22.6654 100.329 23.0271C99.5175 23.3889 98.5489 23.5698 97.4232 23.5698C96.3162 23.5698 95.311 23.4251 94.4067 23.1356C93.5028 22.8282 92.7279 22.376 92.082 21.7791C91.4366 21.1822 90.9385 20.4406 90.5876 19.5542C90.2372 18.668 90.0618 17.6279 90.0618 16.4341C90.0618 15.2765 90.2372 14.2635 90.5876 13.3953C90.9568 12.509 91.4643 11.7765 92.1097 11.1977C92.7556 10.6008 93.5305 10.1576 94.4344 9.8682C95.3387 9.56074 96.3439 9.40696 97.4509 9.40696C98.3918 9.42508 99.2497 9.55168 100.025 9.78681C100.8 10.022 101.418 10.3114 101.879 10.655V14.6163C101.399 13.8928 100.791 13.3139 100.052 12.8798C99.3328 12.4276 98.4659 12.1925 97.4509 12.1744C96.1225 12.1744 95.1079 12.5181 94.4067 13.2054C93.7059 13.8928 93.3551 14.9238 93.3551 16.2984V16.7054C93.3551 18.1163 93.7148 19.1563 94.4344 19.8256C95.1727 20.4767 96.1966 20.8023 97.5062 20.8023C98.6686 20.8023 99.6189 20.5943 100.357 20.1783C101.113 19.7623 101.667 19.2558 102.017 18.6589V21.9147ZM108.427 12.5H103.999V9.70541H116.121V12.5H111.638V23.2713H108.427V12.5ZM118.785 9.70541H121.829V12.5271C121.959 12.1473 122.143 11.7765 122.383 11.4147C122.641 11.0349 122.964 10.7003 123.352 10.4108C123.758 10.1214 124.237 9.88632 124.791 9.70541C125.344 9.52455 125.99 9.43409 126.728 9.43409C127.613 9.43409 128.416 9.56975 129.135 9.84107C129.874 10.0943 130.501 10.4922 131.017 11.0349C131.553 11.5775 131.968 12.2739 132.263 13.124C132.558 13.9742 132.705 14.9961 132.705 16.1899C132.705 17.5284 132.558 18.668 132.263 19.6085C131.968 20.531 131.543 21.2907 130.99 21.8876C130.455 22.4664 129.8 22.8915 129.025 23.1628C128.25 23.4341 127.392 23.5698 126.451 23.5698C125.344 23.5698 124.413 23.3346 123.656 22.8643C122.918 22.3941 122.374 21.8424 122.023 21.2093V28.5077H118.785V9.70541ZM122.023 16.9496C122.023 18.1796 122.355 19.1292 123.019 19.7984C123.684 20.4496 124.588 20.7752 125.732 20.7752C127.042 20.7752 127.992 20.4406 128.582 19.7713C129.173 19.084 129.468 17.9354 129.468 16.3256C129.468 14.8424 129.127 13.7933 128.444 13.1783C127.779 12.5633 126.894 12.2558 125.787 12.2558C124.514 12.2558 123.573 12.5814 122.964 13.2325C122.374 13.8837 122.06 14.7791 122.023 15.9186V16.9496ZM133.556 9.70541H137.181L140.973 19.0116L144.072 9.70541H147.504L141.969 24.7093C141.655 25.5232 141.342 26.1835 141.028 26.6899C140.715 27.2145 140.382 27.6214 140.032 27.9108C139.7 28.2183 139.34 28.4263 138.952 28.5349C138.565 28.6434 138.141 28.6977 137.679 28.6977C137.255 28.6977 136.831 28.6434 136.406 28.5349C135.982 28.4263 135.668 28.2817 135.465 28.1008V25.1434C135.668 25.3424 135.917 25.5052 136.213 25.6318C136.508 25.7584 136.812 25.8217 137.126 25.8217C137.624 25.8217 138.058 25.6318 138.427 25.2519C138.814 24.8902 139.137 24.248 139.395 23.3256L133.556 9.70541ZM149.622 9.70541H152.86V14.9961H155.101L158.976 9.70541H162.573L157.73 16.1085L163.348 23.2713H159.418L155.074 17.655H152.86V23.2713H149.622V9.70541ZM168.938 12.5H164.51V9.70541H176.632V12.5H172.148V23.2713H168.938V12.5ZM185.468 23.5698C184.379 23.5698 183.402 23.4251 182.534 23.1356C181.667 22.8282 180.92 22.376 180.293 21.7791C179.665 21.1822 179.186 20.4406 178.854 19.5542C178.521 18.668 178.355 17.6279 178.355 16.4341C178.355 15.2584 178.531 14.2364 178.881 13.3682C179.232 12.4819 179.721 11.7494 180.348 11.1705C180.975 10.5736 181.732 10.1305 182.617 9.84107C183.503 9.55168 184.49 9.40696 185.578 9.40696C186.648 9.40696 187.617 9.56074 188.484 9.8682C189.37 10.1757 190.117 10.6279 190.726 11.2248C191.353 11.8217 191.833 12.5633 192.165 13.4496C192.497 14.3359 192.663 15.3669 192.663 16.5426C192.663 17.7183 192.488 18.7494 192.137 19.6356C191.787 20.5039 191.298 21.2274 190.671 21.8062C190.043 22.385 189.287 22.8282 188.401 23.1356C187.516 23.4251 186.538 23.5698 185.468 23.5698ZM181.649 16.5155C181.649 18.0168 181.99 19.1111 182.673 19.7984C183.355 20.4677 184.305 20.8023 185.523 20.8023C186.759 20.8023 187.709 20.4587 188.374 19.7713C189.038 19.0659 189.37 17.9897 189.37 16.5426V16.4612C189.37 14.96 189.019 13.8747 188.318 13.2054C187.636 12.5181 186.685 12.1744 185.468 12.1744C184.232 12.1925 183.281 12.5542 182.617 13.2597C181.971 13.947 181.649 15.0052 181.649 16.4341V16.5155ZM195.647 9.70541H198.691V12.5271C198.82 12.1473 199.005 11.7765 199.245 11.4147C199.503 11.0349 199.826 10.7003 200.213 10.4108C200.619 10.1214 201.099 9.88632 201.652 9.70541C202.206 9.52455 202.851 9.43409 203.59 9.43409C204.475 9.43409 205.278 9.56975 205.997 9.84107C206.735 10.0943 207.362 10.4922 207.879 11.0349C208.414 11.5775 208.829 12.2739 209.125 13.124C209.42 13.9742 209.567 14.9961 209.567 16.1899C209.567 17.5284 209.42 18.668 209.125 19.6085C208.829 20.531 208.405 21.2907 207.851 21.8876C207.316 22.4664 206.661 22.8915 205.887 23.1628C205.112 23.4341 204.254 23.5698 203.313 23.5698C202.206 23.5698 201.274 23.3346 200.518 22.8643C199.779 22.3941 199.235 21.8424 198.885 21.2093V28.5077H195.647V9.70541ZM198.885 16.9496C198.885 18.1796 199.217 19.1292 199.881 19.7984C200.545 20.4496 201.449 20.7752 202.593 20.7752C203.903 20.7752 204.853 20.4406 205.444 19.7713C206.034 19.084 206.329 17.9354 206.329 16.3256C206.329 14.8424 205.988 13.7933 205.305 13.1783C204.641 12.5633 203.756 12.2558 202.649 12.2558C201.376 12.2558 200.435 12.5814 199.826 13.2325C199.235 13.8837 198.922 14.7791 198.885 15.9186V16.9496ZM228.971 12.5H222.938V23.2713H219.7V9.70541H232.209V23.2713H228.971V12.5ZM236.159 9.70541H239.37V18.9031L246.011 9.70541H249.083V23.2713H245.873V13.9651L239.231 23.2713H236.159V9.70541ZM264.037 21.9147C263.724 22.2946 263.161 22.6654 262.349 23.0271C261.537 23.3889 260.569 23.5698 259.443 23.5698C258.336 23.5698 257.331 23.4251 256.427 23.1356C255.523 22.8282 254.748 22.376 254.102 21.7791C253.456 21.1822 252.958 20.4406 252.608 19.5542C252.257 18.668 252.082 17.6279 252.082 16.4341C252.082 15.2765 252.257 14.2635 252.608 13.3953C252.976 12.509 253.484 11.7765 254.13 11.1977C254.775 10.6008 255.55 10.1576 256.455 9.8682C257.358 9.56074 258.364 9.40696 259.471 9.40696C260.412 9.42508 261.27 9.55168 262.045 9.78681C262.82 10.022 263.437 10.3114 263.899 10.655V14.6163C263.419 13.8928 262.81 13.3139 262.072 12.8798C261.353 12.4276 260.486 12.1925 259.471 12.1744C258.143 12.1744 257.128 12.5181 256.427 13.2054C255.726 13.8928 255.375 14.9238 255.375 16.2984V16.7054C255.375 18.1163 255.735 19.1563 256.455 19.8256C257.192 20.4767 258.216 20.8023 259.526 20.8023C260.689 20.8023 261.639 20.5943 262.377 20.1783C263.133 19.7623 263.686 19.2558 264.037 18.6589V21.9147ZM278.073 21.9147C277.907 22.1137 277.667 22.3127 277.354 22.5116C277.04 22.6925 276.662 22.8643 276.219 23.0271C275.776 23.1899 275.278 23.3166 274.725 23.407C274.19 23.4974 273.609 23.5426 272.981 23.5426C270.675 23.5607 268.885 22.9729 267.612 21.7791C266.339 20.5672 265.703 18.7855 265.703 16.4341C265.703 15.3127 265.869 14.3178 266.201 13.4496C266.552 12.5633 267.04 11.8217 267.668 11.2248C268.295 10.6279 269.033 10.1757 269.882 9.8682C270.749 9.56074 271.708 9.40696 272.76 9.40696C274.771 9.42508 276.339 10.0129 277.464 11.1705C278.608 12.3282 279.18 13.9742 279.18 16.1085V17.4108H268.913C269.171 19.6718 270.564 20.8023 273.092 20.8023C274.365 20.8023 275.416 20.5943 276.247 20.1783C277.096 19.7623 277.704 19.2558 278.073 18.6589V21.9147ZM272.677 12.1744C271.625 12.1744 270.786 12.4276 270.158 12.9341C269.531 13.4406 269.134 14.1822 268.968 15.1589H275.942C275.906 14.2364 275.601 13.5129 275.029 12.9884C274.457 12.4457 273.673 12.1744 272.677 12.1744ZM294.416 14.155L290.431 19.907H289.407L285.394 14.1279V23.2713H282.157V9.70541H285.505L290.016 16.0542L294.389 9.70541H297.654V23.2713H294.416V14.155Z" fill="black"/>
</g>
<path fill-rule="evenodd" clip-rule="evenodd" d="M0.00182412 18.4158C0.00182412 18.4158 -0.0351144 17.7935 0.223455 17.3543C0.345352 17.1464 1.04053 16.0578 1.73867 14.9677C2.64145 13.5592 2.39322 11.7173 1.17351 10.5672C0.725819 10.1448 0.357911 9.78828 0.260394 9.66747C-0.0351144 9.30144 0.00182412 8.86221 0.00182412 8.86221L4.36057 7.50787V12.5343C4.36057 12.5343 4.20321 16.396 4.61914 18.1962C5.03433 19.9956 6.02282 20.4656 6.02282 20.4656L0.00182412 18.4158Z" fill="#3D9457"/>
<path fill-rule="evenodd" clip-rule="evenodd" d="M23.9379 18.4158C23.9379 18.4158 23.9749 17.7935 23.7163 17.3543C23.5936 17.1464 22.8992 16.0578 22.2003 14.9677C21.2976 13.5592 21.5458 11.7173 22.7662 10.5672C23.2132 10.1448 23.5811 9.78828 23.6793 9.66747C23.9749 9.30144 23.9379 8.86221 23.9379 8.86221L19.5784 7.50787V12.5343C19.5784 12.5343 19.7358 16.396 19.3198 18.1962C18.9047 19.9956 17.9162 20.4656 17.9162 20.4656L23.9379 18.4158Z" fill="#3D9457"/>
<path fill-rule="evenodd" clip-rule="evenodd" d="M9.84685 0.298362L0.464485 4.04076C0.18523 4.15275 0.00201416 4.42142 0.00201416 4.72015V8.7751C0.00201416 8.99693 0.11357 9.20413 0.299741 9.32785C0.495515 9.45739 0.745957 9.47571 0.959462 9.37617L4.35928 7.7802L10.3943 5.41413C10.6765 5.30362 10.8619 5.03418 10.8619 4.73331V0.97775C10.8619 0.459433 10.3322 0.105096 9.84685 0.298362ZM0.00201416 18.5154V22.0147C0.00201416 22.257 0.122432 22.4833 0.323377 22.6194L9.28837 28.6876C9.77891 29.0193 10.4438 28.6715 10.4438 28.083V24.3135C10.4438 24.1063 10.3552 23.9093 10.1985 23.7717C9.36296 23.0411 6.5564 20.6348 4.36076 19.331C2.75763 18.3785 1.47956 18.0132 0.73192 17.8726C0.332245 17.798 0.00201416 18.112 0.00201416 18.5154Z" fill="url(#paint0_linear_172_1002)"/>
<path fill-rule="evenodd" clip-rule="evenodd" d="M14.0924 0.298362L23.4748 4.04076C23.7548 4.15275 23.938 4.42142 23.938 4.72015V8.7751C23.938 8.99693 23.8264 9.20413 23.6402 9.32785C23.4438 9.45739 23.1933 9.47571 22.9798 9.37617L19.58 7.7802L13.5449 5.41413C13.2628 5.30362 13.0773 5.03418 13.0773 4.73331V0.97775C13.0773 0.459433 13.607 0.105096 14.0924 0.298362ZM23.938 18.5154V22.0147C23.938 22.257 23.8176 22.4833 23.6159 22.6194L14.6509 28.6876C14.1603 29.0193 13.4955 28.6715 13.4955 28.083V24.3135C13.4955 24.1063 13.5841 23.9093 13.7408 23.7717C14.5763 23.0411 17.3829 20.6348 19.5785 19.331C21.1817 18.3785 22.4597 18.0132 23.2073 17.8726C23.6077 17.798 23.938 18.112 23.938 18.5154Z" fill="url(#paint1_linear_172_1002)"/>
</g>
<defs>
<linearGradient id="paint0_linear_172_1002" x1="10.8619" y1="13.6208" x2="-1.62161" y2="14.7016" gradientUnits="userSpaceOnUse">
<stop stop-color="#A7F2FF"/>
<stop offset="1" stop-color="#3AA14D"/>
</linearGradient>
<linearGradient id="paint1_linear_172_1002" x1="13.078" y1="13.6208" x2="25.5615" y2="14.7016" gradientUnits="userSpaceOnUse">
<stop stop-color="#A7F2FF"/>
<stop offset="1" stop-color="#24B23E"/>
</linearGradient>
<clipPath id="clip0_172_1002">
<rect width="298" height="29" fill="white"/>
</clipPath>
</defs>
</svg>
