<svg width="24" height="24" viewBox="0 0 24 24" fill="none" xmlns="http://www.w3.org/2000/svg">
<path d="M14.2428 4.48441C13.911 4.13649 13.9205 3.582 14.2639 3.24592C14.6074 2.90984 15.1548 2.91943 15.4866 3.26735L20 7.99999L15.4866 12.7327C15.1548 13.0806 14.6074 13.0902 14.2639 12.7541C13.9205 12.418 13.911 11.8635 14.2428 11.5156L16.6418 9H10.5C8.01472 9 6 11.0147 6 13.5C6 15.9853 8.01472 18 10.5 18H13C13.5523 18 14 18.4477 14 19C14 19.5523 13.5523 20 13 20H10.5C6.91015 20 4 17.0899 4 13.5C4 9.91015 6.91015 7 10.5 7H16.6418L14.2428 4.48441Z" fill="#4E4E4E"/>
</svg>
