<svg width="24" height="24" viewBox="0 0 24 24" fill="none" xmlns="http://www.w3.org/2000/svg">
<path d="M9.75722 4.48441C10.089 4.13649 10.0795 3.582 9.73606 3.24592C9.39258 2.90984 8.84517 2.91943 8.51337 3.26735L4 7.99999L8.51337 12.7327C8.84516 13.0806 9.39258 13.0902 9.73606 12.7541C10.0795 12.418 10.089 11.8635 9.75722 11.5156L7.35819 9H13.5C15.9853 9 18 11.0147 18 13.5C18 15.9853 15.9853 18 13.5 18H11C10.4477 18 10 18.4477 10 19C10 19.5523 10.4477 20 11 20H13.5C17.0899 20 20 17.0899 20 13.5C20 9.91015 17.0899 7 13.5 7H7.35818L9.75722 4.48441Z" fill="#4E4E4E"/>
</svg>
