<svg width="10" height="10" viewBox="0 0 10 10" fill="none" xmlns="http://www.w3.org/2000/svg">
<path d="M1.66699 3.00041V7.00041C1.66699 7.46712 1.66699 7.70035 1.75782 7.87861C1.83771 8.03541 1.96511 8.16303 2.12191 8.24292C2.29999 8.33366 2.53324 8.33366 2.99904 8.33366H7.00161C7.46741 8.33366 7.70032 8.33366 7.87841 8.24292C8.03521 8.16303 8.16303 8.03541 8.24292 7.87861C8.33366 7.70052 8.33366 7.46761 8.33366 7.00182V2.99904C8.33366 2.53324 8.33366 2.29999 8.24292 2.12191C8.16303 1.96511 8.03521 1.83771 7.87841 1.75782C7.70015 1.66699 7.46712 1.66699 7.00041 1.66699H3.00041C2.5337 1.66699 2.30017 1.66699 2.12191 1.75782C1.96511 1.83771 1.83771 1.96511 1.75782 2.12191C1.66699 2.30017 1.66699 2.5337 1.66699 3.00041Z" stroke="#ABB7C8" stroke-width="0.8" stroke-linecap="round" stroke-linejoin="round"/>
</svg>
