<svg width="10" height="10" viewBox="0 0 10 10" fill="none" xmlns="http://www.w3.org/2000/svg">
<g clip-path="url(#clip0_95_100)">
<path d="M10 3.75703C10 3.36576 9.84764 2.99791 9.57096 2.72123L7.91368 1.06396C7.637 0.787281 7.26915 0.634918 6.87788 0.634918C6.48661 0.634918 6.11876 0.787281 5.84208 1.06396L1.69887 5.20716C1.12772 5.77832 1.12772 6.70763 1.69887 7.27877L3.19924 8.77914L3.69938 9.27927C3.75432 9.33422 3.82883 9.36509 3.90653 9.36509H9.70704C9.86883 9.36509 10 9.23392 10 9.07213C10 8.91033 9.86883 8.77916 9.70704 8.77916H5.58465L9.57096 4.79285C9.84764 4.51617 10 4.14832 10 3.75703ZM4.756 8.77914H4.0279L2.11319 6.86443C1.77051 6.52174 1.77051 5.96416 2.11319 5.62146L3.97762 3.75703L6.87788 6.65728L4.756 8.77914ZM9.15665 4.37851L7.29219 6.24295L4.39196 3.34271L6.25639 1.47828C6.59909 1.1356 7.15669 1.13562 7.49936 1.47828L9.15665 3.13556C9.49932 3.47824 9.49932 4.03584 9.15665 4.37851Z" fill="#333333"/>
<path d="M3.90653 9.36509C3.82883 9.36509 3.75432 9.33422 3.69938 9.27927L3.19924 8.77914H0.292979C0.131171 8.77914 0 8.91031 0 9.07212C0 9.23392 0.131171 9.36509 0.292979 9.36509H3.90653Z" fill="#333333"/>
</g>
<defs>
<clipPath id="clip0_95_100">
<rect width="10" height="10" fill="white"/>
</clipPath>
</defs>
</svg>
