<svg width="10" height="10" viewBox="0 0 10 10" fill="none" xmlns="http://www.w3.org/2000/svg">
<path d="M4.16642 2.08366H3.41642C2.94971 2.08366 2.71618 2.08366 2.53792 2.17449C2.38112 2.25438 2.25373 2.38177 2.17384 2.53857C2.08301 2.71683 2.08301 2.95036 2.08301 3.41707V6.58374C2.08301 7.05045 2.08301 7.28368 2.17384 7.46194C2.25373 7.61875 2.38112 7.74636 2.53792 7.82625C2.71601 7.91699 2.94926 7.91699 3.41505 7.91699H6.5843C7.05009 7.91699 7.283 7.91699 7.46109 7.82625C7.61789 7.74636 7.74571 7.61862 7.8256 7.46182C7.91634 7.28374 7.91634 7.05074 7.91634 6.58495V5.83366M8.33301 3.75033V1.66699M8.33301 1.66699H6.24967M8.33301 1.66699L5.41634 4.58366" stroke="#ABB7C8" stroke-width="0.8" stroke-linecap="round" stroke-linejoin="round"/>
</svg>
