<svg width="12" height="12" viewBox="0 0 12 12" fill="none" xmlns="http://www.w3.org/2000/svg">
<g clip-path="url(#clip0_301_1965)">
<path fill-rule="evenodd" clip-rule="evenodd" d="M9.00006 2.24252C9.00006 1.41751 8.32506 0.742508 7.50005 0.742508H2.25001C1.41751 0.742508 0.75 1.41751 0.75 2.24252V7.49256C0.75 8.32507 1.41751 8.99257 2.25001 8.99257H2.92502C2.96252 8.99257 3.00002 9.03007 3.00002 9.06757V9.74258C3.00002 10.5751 3.66752 11.2426 4.50003 11.2426H9.75007C10.5751 11.2426 11.2501 10.5751 11.2501 9.74258V4.49254C11.2501 3.66753 10.5751 2.99253 9.75007 2.99253H9.07506C9.03006 2.99253 9.00006 2.96252 9.00006 2.91752V2.24252ZM9.00006 4.04253V7.49256C9.00006 8.32507 8.32506 8.99257 7.50005 8.99257H4.05003C4.00502 8.99257 3.97502 9.03007 3.97502 9.06757V9.74258C3.97502 10.0351 4.20753 10.2676 4.50003 10.2676H9.75007C10.0351 10.2676 10.2751 10.0351 10.2751 9.74258V4.49254C10.2751 4.20753 10.0351 3.96753 9.75007 3.96753H9.07506C9.03006 3.96753 9.00006 4.00503 9.00006 4.04253ZM8.02506 2.24252C8.02506 1.95752 7.78505 1.71752 7.50005 1.71752H2.25001C1.95751 1.71752 1.72501 1.95752 1.72501 2.24252V7.49256C1.72501 7.78506 1.95751 8.01756 2.25001 8.01756H7.50005C7.78505 8.01756 8.02506 7.78506 8.02506 7.49256V2.24252Z" fill="#333333"/>
</g>
<defs>
<clipPath id="clip0_301_1965">
<rect width="12" height="12" fill="white"/>
</clipPath>
</defs>
</svg>
