<svg width="10" height="10" viewBox="0 0 10 10" fill="none" xmlns="http://www.w3.org/2000/svg">
<path d="M1.25002 7.08369C1.25 7.05678 1.25 7.02903 1.25 7.00041V3.00041C1.25 2.5337 1.25 2.30017 1.34083 2.12191C1.42072 1.96511 1.54811 1.83771 1.70492 1.75782C1.88318 1.66699 2.1167 1.66699 2.58341 1.66699H7.41675C7.88346 1.66699 8.11669 1.66699 8.29495 1.75782C8.45175 1.83771 8.57937 1.96511 8.65926 2.12191C8.75 2.29999 8.75 2.53324 8.75 2.99904V7.00161C8.75 7.2037 8.75 7.36195 8.74259 7.49091M1.25002 7.08369C1.25034 7.4955 1.25557 7.71108 1.34083 7.87841C1.42072 8.03521 1.54811 8.16303 1.70492 8.24292C1.883 8.33366 2.11625 8.33366 2.58205 8.33366H7.41816C7.88396 8.33366 8.11687 8.33366 8.29495 8.24292C8.45175 8.16303 8.57937 8.03521 8.65926 7.87841C8.71063 7.77758 8.73292 7.65919 8.74259 7.49091M1.25002 7.08369L3.23666 4.76595L3.23724 4.76531C3.41345 4.55974 3.50169 4.45679 3.60636 4.41968C3.69831 4.38708 3.79869 4.38784 3.89018 4.42171C3.99443 4.46031 4.08127 4.56444 4.25496 4.77287L5.36795 6.10845C5.52873 6.30139 5.60959 6.39842 5.70776 6.43736C5.79436 6.47171 5.88985 6.47558 5.97921 6.44921C6.08092 6.4192 6.17045 6.32968 6.34949 6.15063L6.5566 5.94352C6.73889 5.76123 6.83003 5.67015 6.9332 5.64038C7.02381 5.61423 7.12068 5.61985 7.20784 5.65584C7.30709 5.69683 7.38758 5.79715 7.54862 5.99845L8.74259 7.49091M8.74259 7.49091L8.74999 7.50016M6.25 4.16699C6.01988 4.16699 5.83333 3.98044 5.83333 3.75033C5.83333 3.52021 6.01988 3.33366 6.25 3.33366C6.48012 3.33366 6.66667 3.52021 6.66667 3.75033C6.66667 3.98044 6.48012 4.16699 6.25 4.16699Z" stroke="#ABB7C8" stroke-width="0.8" stroke-linecap="round" stroke-linejoin="round"/>
</svg>
